<svg xmlns="http://www.w3.org/2000/svg" viewBox="0 0 199.28 176.18"><path d="M10.43,29.32H46.19l22,36.06,22-36.06h35.77V131.93H91.78V81.07l-23.67,36.5h-.59L43.85,81.07" fill="#202222"/><path d="M3.24,123.66q6.78-.72,10.47-3.59a9.38,9.38,0,0,0,3.71-7.74l-12.59-.07L5,82.77l32.1.19L37,106.42a32.59,32.59,0,0,1-2.42,13.2A21.63,21.63,0,0,1,28,128a27,27,0,0,1-9.85,4.62,58.75,58.75,0,0,1-12.47,1.66Zm2-94.41,32.1.19-.22,41.23L5,70.48Z" fill="#202222"/><path d="M132.4,29.2H196V46.42h-28.9v68.37H196V132H132.4Z" fill="#202222"/><path d="M114.76,72.67h70.16V92.34H114.76Z" fill="#c62128"/><path d="M91.89,138.67h3l2.36,3.72,2.19-3.72h2.45v8h-2.3v-5.54l-2.64,4.45h-.55l-2.82-4.45v5.54H91.89Z" fill="#c62128"/><path d="M108,138.67h2.18l3.72,8h-2.69l-.79-1.68h-3.66l-.72,1.68h-1.76Zm-.74,5.13h2.59l-1.35-2.91Z" fill="#c62128"/><path d="M116.37,138.67h4.75c1.9,0,2.79.3,3.35.83a2.24,2.24,0,0,1,.6,1.6,1.54,1.54,0,0,1-.48,1.12,3.3,3.3,0,0,1-2,.77l2.48,3.69h-2.89l-2.13-3.28h-1.43v3.28h-2.3Zm4.45,3.46c.94,0,1.73-.35,1.73-1.1,0-1-.94-1.1-2.08-1.1h-1.8v2.2Z" fill="#c62128"/><path d="M128.37,138.67h2.3v8h-2.3Z" fill="#c62128"/><path d="M133.5,142.66a4.91,4.91,0,1,1,4.86,4.31A4.6,4.6,0,0,1,133.5,142.66Zm7,0c0-1.72-.45-3-2.12-3s-2.21,1.28-2.21,3,.55,3,2.21,3S140.48,144.39,140.48,142.66Z" fill="#c62128"/><path d="M150.43,138.67h6.69v1.38h-4.39v1.73h3v1.36h-3v2.14h4.69v1.4h-7Z" fill="#c62128"/><path d="M160.54,138.67h2.3v6.61h3.95v1.4h-6.25Z" fill="#c62128"/><path d="M169.89,138.67h3.28c2.52,0,3.84.46,4.82,1.47a3.39,3.39,0,0,1,.93,2.46,3.73,3.73,0,0,1-1.14,2.68,5.66,5.66,0,0,1-4.11,1.4h-3.78Zm3.56,6.72a2.56,2.56,0,0,0,2.87-2.79,2.26,2.26,0,0,0-.69-1.84,3.37,3.37,0,0,0-2.69-.83h-.75v5.46Z" fill="#c62128"/><path d="M181.75,138.67h2.3v8h-2.3Z" fill="#c62128"/><path d="M188,138.67h2.69l3.7,4.58v-4.58H196v8h-2l-4.38-5.43v5.43H188Z" fill="#c62128"/></svg>